<?xml version="1.0"?>
<svg xmlns="http://www.w3.org/2000/svg" xmlns:xlink="http://www.w3.org/1999/xlink" version="1.1" id="Capa_1" x="0px" y="0px" viewBox="0 0 512 512" style="enable-background:new 0 0 512 512;" xml:space="preserve" width="512px" height="512px"><g><g>
	<g>
		<path d="M448,0H64C28.704,0,0,28.704,0,64v288c0,35.296,28.704,64,64,64h104.512l75.2,90.24c3.008,3.616,7.456,5.728,12.128,5.76    c0.064,0,0.128,0,0.16,0c4.64,0,9.056-2.016,12.096-5.504L346.528,416H448c35.296,0,64-28.704,64-64V64    C512,28.704,483.296,0,448,0z M480,352c0,17.632-14.368,32-32,32H339.2c-4.64,0-9.056,2.016-12.096,5.504l-70.88,81.792    l-67.936-81.536c-3.04-3.648-7.552-5.76-12.288-5.76H64c-17.632,0-32-14.368-32-32V64c0-17.632,14.368-32,32-32h384    c17.632,0,32,14.368,32,32V352z" data-original="#000000" class="active-path" data-old_color="#000000" fill="#5E0BDC"/>
	</g>
</g><g>
	<g>
		<path d="M272,224H144c-8.832,0-16,7.168-16,16c0,8.832,7.168,16,16,16h128c8.832,0,16-7.168,16-16    C288,231.168,280.832,224,272,224z" data-original="#000000" class="active-path" data-old_color="#000000" fill="#5E0BDC"/>
	</g>
</g><g>
	<g>
		<path d="M368,128H144c-8.832,0-16,7.168-16,16c0,8.832,7.168,16,16,16h224c8.832,0,16-7.168,16-16    C384,135.168,376.832,128,368,128z" data-original="#000000" class="active-path" data-old_color="#000000" fill="#5E0BDC"/>
	</g>
</g></g> </svg>
