<?xml version="1.0"?>
<svg xmlns="http://www.w3.org/2000/svg" height="512px" viewBox="-49 0 469 470" width="512px" class=""><g><path d="m266.5 107.742188v-67.347657c0-22.054687-17.648438-40.394531-39.699219-40.394531h-186c-22.21875.183594-40.167969 18.175781-40.300781 40.394531v389.210938c.132812 22.21875 18.082031 40.210937 40.300781 40.394531h186c22.054688 0 39.699219-18.339844 39.699219-40.394531v-86.46875c45.285156-4.976563 83.710938-35.472657 98.832031-78.449219 15.121094-42.976562 4.261719-90.816406-27.933593-123.050781-19.015626-19.140625-44.0625-31.113281-70.898438-33.894531zm-122.957031 160.90625c4.027343 10.273437 9.484375 19.925781 16.207031 28.671874l-15.800781 36.777344c-1.449219 3.371094-.933594 7.269532 1.34375 10.152344 2.28125 2.882812 5.953125 4.28125 9.574219 3.644531l60.121093-10.566406c10.152344 3.585937 20.761719 5.710937 31.511719 6.3125v20.359375h-226v-282h226v25.273438c-37.84375 2.1875-72.335938 22.414062-92.726562 54.371093-20.390626 31.957031-24.195313 71.761719-10.230469 107.003907zm-102.742188-248.648438h186c11.027344 0 19.699219 9.367188 19.699219 20.394531v21.605469h-226v-21.605469c.121094-11.175781 9.125-20.222656 20.300781-20.394531zm186 430h-186c-11.175781-.171875-20.179687-9.21875-20.300781-20.394531v-45.605469h226v45.605469c0 11.027343-8.675781 20.394531-19.699219 20.394531zm26.851563-126.132812c-11.613282.015624-23.128906-2.082032-33.988282-6.191407-1.695312-.652343-3.53125-.832031-5.316406-.515625l-44.71875 7.839844 10.894532-25.359375c1.511718-3.523437.878906-7.601563-1.632813-10.5-7.109375-8.253906-12.765625-17.652344-16.730469-27.800781-15.746094-40.210938-3.4375-85.988282 30.351563-112.878906 33.789062-26.890626 81.160156-28.613282 116.8125-4.246094 35.652343 24.367187 51.25 69.128906 38.46875 110.375-12.78125 41.25-50.964844 69.34375-94.144531 69.277344zm0 0" data-original="#000000" class="active-path" data-old_color="#000000" fill="#5E0BDC"/><path d="m207.5 211h61c5.523438 0 10-4.476562 10-10s-4.476562-10-10-10h-61c-5.523438 0-10 4.476562-10 10s4.476562 10 10 10zm0 0" data-original="#000000" class="active-path" data-old_color="#000000" fill="#5E0BDC"/><path d="m308.5 231h-101c-5.523438 0-10 4.476562-10 10s4.476562 10 10 10h101c5.523438 0 10-4.476562 10-10s-4.476562-10-10-10zm0 0" data-original="#000000" class="active-path" data-old_color="#000000" fill="#5E0BDC"/></g> </svg>
