<?xml version="1.0"?>
<svg xmlns="http://www.w3.org/2000/svg" height="512px" viewBox="0 -56 512 511" width="512px"><g><path d="m11.210938 140.375c5.363281 1.300781 10.769531-1.992188 12.074218-7.359375 15.550782-64.144531 88.511719-112.515625 169.714844-112.515625 90.921875 0 173 58.664062 173 140 0 82.507812-86.117188 140-173 140-33.722656 0-67.347656-8.453125-90.328125-19.945312-3.0625-1.53125-6.691406-1.390626-9.625.375l-42.742187 25.695312 16.382812-41.015625c1.550781-3.882813.519531-8.320313-2.578125-11.125-15.800781-14.296875-27.621094-30.78125-35.132813-48.996094-2.109374-5.105469-7.953124-7.535156-13.058593-5.429687-5.105469 2.105468-7.539063 7.953125-5.433594 13.058594 7.820313 18.953124 19.613281 36.214843 35.105469 51.394531l-24.875 62.277343c-1.59375 3.988282-.464844 8.546876 2.804687 11.328126 3.277344 2.785156 7.957031 3.160156 11.632813.953124l63.59375-38.230468c18.355468 8.371094 41.175781 14.699218 63.945312 17.71875 35.527344 38.289062 93.84375 61.941406 153.308594 61.941406 33 0 67.003906-7.125 94.265625-19.652344l63.582031 38.222656c3.671875 2.207032 8.351563 1.835938 11.632813-.953124 3.269531-2.78125 4.398437-7.339844 2.804687-11.328126l-24.867187-62.257812c31.382812-30.433594 48.582031-67.140625 48.582031-104.03125 0-84.226562-80.683594-146.664062-166.085938-158.101562-35.292968-38.269532-93.425781-61.898438-152.914062-61.898438-86.164062 0-170.359375 50.28125-189.152344 127.800781-1.300781 5.367188 1.996094 10.773438 7.363282 12.074219zm480.789062 80.125c0 33.121094-16.730469 66.5-47.109375 93.984375-3.101563 2.804687-4.128906 7.242187-2.578125 11.125l16.382812 41.015625-42.742187-25.695312c-2.933594-1.761719-6.5625-1.902344-9.625-.375-25.351563 12.675781-58.273437 19.945312-90.328125 19.945312-45.363281 0-89.796875-14.933594-121.726562-40.011719 98.839843-.542969 191.726562-67.40625 191.726562-159.988281 0-26.230469-7.503906-51.554688-21.867188-74.394531 73.359376 17.589843 127.867188 73.242187 127.867188 134.394531zm0 0" data-original="#000000" class="active-path" data-old_color="#000000" fill="#5E0BDC"/><path d="m20 170.5c0 5.523438-4.476562 10-10 10s-10-4.476562-10-10 4.476562-10 10-10 10 4.476562 10 10zm0 0" data-original="#000000" class="active-path" data-old_color="#000000" fill="#5E0BDC"/></g> </svg>
